<mxfile host="Electron" modified="2024-01-05T14:13:09.342Z" agent="Mozilla/5.0 (Windows NT 10.0; Win64; x64) AppleWebKit/537.36 (KHTML, like Gecko) draw.io/22.1.16 Chrome/120.0.6099.109 Electron/28.1.0 Safari/537.36" etag="OhIOEQoRMEJdlx7YcBcZ" compressed="false" version="22.1.16" type="device">
  <diagram id="RxJtX9lFTIAGIyw0CZ4D" name="Page-1">
    <mxGraphModel dx="1434" dy="836" grid="1" gridSize="10" guides="1" tooltips="1" connect="1" arrows="1" fold="1" page="1" pageScale="1" pageWidth="850" pageHeight="1100" math="0" shadow="0">
      <root>
        <object tooltip="" id="0">
          <ag_global_attributes>
            <ag_global_attribute name="Resources" value="" iconName="hammer" min="0" max="5" />
            <ag_global_attribute name="Knowledge" value="" iconName="lightbulb" min="0" max="5" />
            <ag_global_attribute name="Location" value="" iconName="map_pin_ellipse" min="0" max="1" />
            <ag_global_attribute name="Impact" value="" iconName="flame" min="0" max="5" />
          </ag_global_attributes>
          <ag_attributes />
          <ag_computed_attributes />
          <ag_aggregation_functions>
            <ag_aggregation_function name="default" id="6b1d22791hih8" default="activity_w;link" fn="function (collection) { &#10;    var result = null; &#10;    if (collection.childAttributes.length == 1) { &#10;        result = collection.childAttributes[0].attributes;&#10;        result._marking = collection.childAttributes[0].id;&#10;    } else { &#10;        var candidates = []; &#10;        var worstValue = 0; &#10;        collection.childAttributes.forEach(function(child) { &#10;            var value = parseInt(child.computedAttribute); &#10;            if (value &gt; worstValue) { &#10;                worstValue = value; &#10;                candidates = []; &#10;                candidates.push(child); &#10;            } else if (value == worstValue) { &#10;                candidates.push(child); &#10;            } &#10;        }); &#10;        var tiebreaker = function(candidates, name, max) { &#10;            var min_value = max; &#10;            candidates.forEach(function(node) { &#10;                min_value = Math.min(min_value, node.attributes[name]); &#10;            }); &#10;            result = []; &#10;            candidates.forEach(function(node) { &#10;                if (node.attributes[name] == min_value) { &#10;                    result.push(node); &#10;                } &#10;            }); &#10;            return result; &#10;        }; &#10;        if (candidates.length &gt; 1) { &#10;            candidates = tiebreaker(candidates, &quot;Resources&quot;, collection.globalAttributes[&quot;Resources&quot;].max); &#10;            if (candidates.length &gt; 1) { &#10;                candidates = tiebreaker(candidates, &quot;Knowledge&quot;, collection.globalAttributes[&quot;Knowledge&quot;].max); &#10;            } &#10;        } &#10;        result = candidates[0].attributes;&#10;        result._marking = candidates[0].id;&#10;    } &#10;    return result; &#10;}" />
            <ag_aggregation_function name="AND" id="gf0d4f199018" default="and" fn="function (collection) { &#10;    var result = {}; &#10;    var ids = [];&#10;    collection.childAttributes.forEach(function(child) { &#10;    for (var attribute in child.attributes) { &#10;            if (attribute in result) { &#10;                result[attribute] += parseInt(child.attributes[attribute]); &#10;            } else { &#10;                result[attribute] = parseInt(child.attributes[attribute]); &#10;            } &#10;        }&#10;        ids.push(child.id);&#10;    }); &#10;    for (var attribute in result) { &#10;        if (attribute in collection.globalAttributes) { &#10;            result[attribute] = Math.min(collection.globalAttributes[attribute].max, result[attribute]); &#10;        } &#10;    }&#10;    result._marking = ids.join(&quot;;&quot;);&#10;    return result; &#10;}" />
            <ag_aggregation_function name="Security Control" id="73f575i0ghij5" default="activity_g;activity_y" fn="function (collection) { &#10;    var result = {}; &#10;    for (var attribute in collection.localAttributes) { &#10;        result[attribute] = parseInt(collection.localAttributes[attribute]); &#10;    } &#10;    collection.childAttributes.forEach(function(child) { &#10;        for (var attribute in child.attributes) { &#10;            if (attribute in collection.globalAttributes) { &#10;                if (attribute in result) { &#10;                    result[attribute] += parseInt(child.attributes[attribute]); &#10;                } &#10;            } &#10;        } &#10;    }); &#10;    for (var attribute in result) { &#10;        if (attribute in collection.globalAttributes) { &#10;            result[attribute] = Math.min(collection.globalAttributes[attribute].max, result[attribute]); &#10;        } &#10;    } &#10;    return result; &#10;}" />
            <ag_aggregation_function name="Risk" id="egf49jfgj408" default="consequence" fn="function (collection) {  &#10;    var maxRisk = &quot;L&quot;; &#10;    var matrix = [ &#10;        [&quot;L&quot;, &quot;L&quot;, &quot;L&quot;, &quot;L&quot;, &quot;L&quot;], &#10;        [&quot;L&quot;, &quot;L&quot;, &quot;M&quot;, &quot;M&quot;, &quot;M&quot;], &#10;        [&quot;L&quot;, &quot;M&quot;, &quot;M&quot;, &quot;S&quot;, &quot;S&quot;], &#10;        [&quot;L&quot;, &quot;M&quot;, &quot;S&quot;, &quot;V&quot;, &quot;V&quot;], &#10;        [&quot;L&quot;, &quot;M&quot;, &quot;S&quot;, &quot;V&quot;, &quot;V&quot;], &#10;    ];&#10;    var updatedImpacts = [];&#10;    var ids = [];&#10; &#10;    var compareRisk = function(risk1, risk2) { &#10;        /*&#10;        * Returns:&#10;        *  - Null: if one of the parameters is not a character representing a risk&#10;        *  - Negativ integer: if risk1 &lt; risk2&#10;        *  - Zero: if risks are equal&#10;        *  - Positive integer: if risk1 &gt; risk2&#10;        */&#10;        var values = [&quot;L&quot;, &quot;M&quot;, &quot;S&quot;, &quot;V&quot;]; &#10;        var index_risk1 = values.indexOf(risk1); &#10;        var index_risk2 = values.indexOf(risk2); &#10; &#10;        if (index_risk1 == -1 || index_risk2 == -1) { &#10;            return null; &#10;        } &#10;        return index_risk1 - index_risk2; &#10; &#10;    } &#10;     &#10;    collection.childAttributes.forEach(function(child) {  &#10;        var impact = 1;  &#10;        if (child.edgeWeight !== null) {  &#10;            impact = parseInt(child.edgeWeight);  &#10;        }&#10;        var _impact = parseInt(child.attributes._impact) || 0;&#10;        impact = Math.max(impact - _impact, 1);&#10;        updatedImpacts.push(child.id + ':' + impact);&#10;        var af = parseInt(child.computedAttribute) || parseInt(child.attributes._af);&#10;        risk = matrix[af - 1][impact - 1];&#10;        result = compareRisk(risk, maxRisk);&#10;        if (result &gt; 0) { &#10;            maxRisk = risk;&#10;            ids = [child.id];&#10;        } else if (result == 0){&#10;            ids.push(child.id);&#10;        }&#10;    });  &#10;  &#10;    var result = {'_risk': maxRisk, &quot;_marking&quot;: ids.join(&quot;;&quot;)};&#10;    if (updatedImpacts.length &gt; 0) {&#10;        result._weight = updatedImpacts.join(';');&#10;    }&#10;    return result;&#10;}" />
            <ag_aggregation_function name="Impact" id="397423adceb0f" default="" fn="function(collection) {&#10;    var impact = 0;&#10;    var result = {}&#10;    &#10;    collection.childAttributes.forEach(function(child) {&#10;        if (&quot;Impact&quot; in child.attributes) {&#10;            impact += parseInt(child.attributes[&quot;Impact&quot;]);&#10;        } else if (&quot;Resources&quot; in child.attributes &amp;&amp; &quot;Knowledge&quot; in child.attributes &amp;&amp; &quot;Location&quot; in child.attributes) {&#10;            result._af = child.computedAttribute&#10;            result._marking = child.id;&#10;        }&#10;    });&#10;    result._impact = Math.min(impact, collection.globalAttributes[&quot;Impact&quot;].max);&#10;    &#10;    return result;&#10;}" />
          </ag_aggregation_functions>
          <ag_computed_attributes_functions>
            <ag_computed_attributes_function name="default" id="dbg60ff69g9a" default="activity_w;activity_g;activity_y" fn="function (collection) { &#10;    var colorMatrix = {&#10;        5: {&quot;fillColor&quot;: &quot;#cc0000&quot;, &quot;fontColor&quot;: &quot;#ffffff&quot;},&#10;        4: {&quot;fillColor&quot;: &quot;#ff4000&quot;, &quot;fontColor&quot;: &quot;#ffffff&quot;},&#10;        3: {&quot;fillColor&quot;: &quot;#ffdd00&quot;, &quot;fontColor&quot;: &quot;#000000&quot;},&#10;        2: {&quot;fillColor&quot;: &quot;#d4ff00&quot;, &quot;fontColor&quot;: &quot;#000000&quot;},&#10;        1: {&quot;fillColor&quot;: &quot;#40ff00&quot;, &quot;fontColor&quot;: &quot;#000000&quot;}&#10;    }&#10;    var matrix = [ &#10;        [5, 5, 4, 3, 2], &#10;        [5, 4, 4, 3, 2], &#10;        [5, 4, 4, 3, 2], &#10;        [4, 3, 3, 2, 1], &#10;        [3, 2, 2, 1, 1], &#10;    ];&#10;    var result = {};&#10;    &#10;    if (&quot;Knowledge&quot; in collection.cellAttributes &amp;&amp; &quot;Resources&quot; in collection.cellAttributes) {&#10;        var knowledgeIndex = parseInt(collection.cellAttributes[&quot;Knowledge&quot;]) - 1; &#10;        var resourcesIndex = parseInt(collection.cellAttributes[&quot;Resources&quot;]) - 1;&#10;        &#10;        var value = Math.min(5, &#10;            Math.max(collection.globalAttributes[&quot;Location&quot;].max, &#10;                Math.max( matrix[knowledgeIndex][resourcesIndex] - parseInt(collection.cellAttributes[&quot;Location&quot;])) &#10;            ));&#10;        result = colorMatrix[value] || result;&#10;        result[&quot;value&quot;] = value;&#10;    }&#10;    &#10;    return result;&#10;}" />
            <ag_computed_attributes_function name="Risk" id="6c831697g9i0a" default="" fn="function(collection){&#10;    var riskMatrix = {&#10;        &quot;V&quot;: {&quot;fillColor&quot;: &quot;#cc0000&quot;, &quot;fontColor&quot;: &quot;#ffffff&quot;},&#10;        &quot;S&quot;: {&quot;fillColor&quot;: &quot;#ff4000&quot;, &quot;fontColor&quot;: &quot;#ffffff&quot;},&#10;        &quot;M&quot;: {&quot;fillColor&quot;: &quot;#ffdd00&quot;, &quot;fontColor&quot;: &quot;#000000&quot;},&#10;        &quot;L&quot;: {&quot;fillColor&quot;: &quot;#40ff00&quot;, &quot;fontColor&quot;: &quot;#000000&quot;},&#10;    };&#10;    var result = {};&#10;    &#10;    if (&quot;_risk&quot; in collection.cellAttributes) {&#10;        var risk = collection.cellAttributes[&quot;_risk&quot;];&#10;        result = riskMatrix[risk] || result;&#10;        result[&quot;value&quot;] = risk;&#10;    }&#10;    &#10;    return result; &#10;}" />
          </ag_computed_attributes_functions>
          <mxCell />
        </object>
        <object id="1">
          <ag_attributes />
          <ag_computed_attributes />
          <mxCell parent="0" />
        </object>
        <object label="Attack Target&#10;Identification of Persons" id="ji5RjDv_zK_iG7Rdj1NN-1">
          <ag_attributes />
          <ag_computed_attributes />
          <mxCell style="whiteSpace=wrap;shape=trapezoid;size=0.075;" parent="1" vertex="1">
            <mxGeometry x="1298" y="90" width="224" height="60" as="geometry" />
          </mxCell>
        </object>
        <object label="Violation of Laws and Regulations" id="ji5RjDv_zK_iG7Rdj1NN-2">
          <ag_attributes _risk="L" _marking="ji5RjDv_zK_iG7Rdj1NN-17;ji5RjDv_zK_iG7Rdj1NN-5" _weight="ji5RjDv_zK_iG7Rdj1NN-17:4;ji5RjDv_zK_iG7Rdj1NN-5:4" />
          <ag_computed_attributes fillColor="#40ff00" fontColor="#000000" value="L" />
          <ag_aggregation_function_reference ag_aggregation_function_reference="egf49jfgj408" />
          <ag_computed_attributes_function_reference ag_computed_attributes_function_reference="6c831697g9i0a" />
          <mxCell style="verticalAlign=middle;align=center;fillColor=#FFFFFF;gradientColor=none;labelBackgroundColor=none;rounded=1;whiteSpace=wrap;shape=attackgraphs.node;" parent="1" vertex="1">
            <mxGeometry x="1780" y="200" width="230" height="48" as="geometry" />
          </mxCell>
        </object>
        <object label="Violation of Privacy" id="ji5RjDv_zK_iG7Rdj1NN-3">
          <ag_attributes _risk="L" _marking="ji5RjDv_zK_iG7Rdj1NN-5;ji5RjDv_zK_iG7Rdj1NN-17" _weight="ji5RjDv_zK_iG7Rdj1NN-5:5;ji5RjDv_zK_iG7Rdj1NN-17:5" />
          <ag_computed_attributes fillColor="#40ff00" fontColor="#000000" value="L" />
          <ag_aggregation_function_reference ag_aggregation_function_reference="egf49jfgj408" />
          <ag_computed_attributes_function_reference ag_computed_attributes_function_reference="6c831697g9i0a" />
          <mxCell style="verticalAlign=middle;align=center;fillColor=#FFFFFF;gradientColor=none;labelBackgroundColor=none;rounded=1;whiteSpace=wrap;shape=attackgraphs.node;" parent="1" vertex="1">
            <mxGeometry x="2202" y="200" width="180" height="48" as="geometry" />
          </mxCell>
        </object>
        <object label="Stalk individual user" id="ji5RjDv_zK_iG7Rdj1NN-5">
          <ag_attributes label="NaN" Resources="5" Knowledge="5" Location="0" _marking="ji5RjDv_zK_iG7Rdj1NN-6" />
          <ag_computed_attributes fillColor="#40ff00" fontColor="#000000" value="1" />
          <ag_aggregation_function_reference ag_aggregation_function_reference="6b1d22791hih8" />
          <ag_computed_attributes_function_reference ag_computed_attributes_function_reference="dbg60ff69g9a" />
          <mxCell style="verticalAlign=top;align=center;fillColor=#FFFFFF;gradientColor=none;labelBackgroundColor=none;rounded=0;whiteSpace=wrap;shape=attackgraphs.node;spacingRight=20;" parent="1" vertex="1">
            <mxGeometry x="2202" y="320" width="180" height="60" as="geometry" />
          </mxCell>
        </object>
        <object label="Access on camera live-feed" id="ji5RjDv_zK_iG7Rdj1NN-6">
          <ag_attributes label="NaN" Resources="5" Knowledge="5" Location="0" _marking="ji5RjDv_zK_iG7Rdj1NN-10" />
          <ag_computed_attributes fillColor="#40ff00" fontColor="#000000" value="1" />
          <ag_aggregation_function_reference ag_aggregation_function_reference="6b1d22791hih8" />
          <ag_computed_attributes_function_reference ag_computed_attributes_function_reference="dbg60ff69g9a" />
          <mxCell style="verticalAlign=top;align=center;fillColor=#FFFFFF;gradientColor=none;labelBackgroundColor=none;rounded=0;whiteSpace=wrap;shape=attackgraphs.node;spacingRight=20;" parent="1" vertex="1">
            <mxGeometry x="2102" y="424" width="150" height="60" as="geometry" />
          </mxCell>
        </object>
        <object label="Access on data set" id="ji5RjDv_zK_iG7Rdj1NN-7">
          <ag_attributes label="NaN" Resources="5" Knowledge="5" Location="0" _marking="ji5RjDv_zK_iG7Rdj1NN-13" />
          <ag_computed_attributes fillColor="#40ff00" fontColor="#000000" value="1" />
          <ag_aggregation_function_reference ag_aggregation_function_reference="6b1d22791hih8" />
          <ag_computed_attributes_function_reference ag_computed_attributes_function_reference="dbg60ff69g9a" />
          <mxCell style="verticalAlign=top;align=center;fillColor=#FFFFFF;gradientColor=none;labelBackgroundColor=none;rounded=0;whiteSpace=wrap;shape=attackgraphs.node;spacingRight=20;" parent="1" vertex="1">
            <mxGeometry x="2280" y="424" width="182" height="60" as="geometry" />
          </mxCell>
        </object>
        <object label="" id="ji5RjDv_zK_iG7Rdj1NN-8">
          <ag_attributes />
          <ag_computed_attributes />
          <mxCell style="endArrow=classic;rounded=0;strokeWidth=2;strokeColor=#000000;verticalAlign=top;spacingRight=20;" parent="1" source="ji5RjDv_zK_iG7Rdj1NN-5" target="ji5RjDv_zK_iG7Rdj1NN-6" edge="1">
            <mxGeometry width="50" height="50" relative="1" as="geometry">
              <mxPoint x="2212" y="266" as="sourcePoint" />
              <mxPoint x="2212" y="328" as="targetPoint" />
            </mxGeometry>
          </mxCell>
        </object>
        <object label="" id="ji5RjDv_zK_iG7Rdj1NN-9">
          <ag_attributes />
          <ag_computed_attributes />
          <mxCell style="endArrow=classic;rounded=0;strokeWidth=2;strokeColor=#000000;verticalAlign=top;spacingRight=20;" parent="1" source="ji5RjDv_zK_iG7Rdj1NN-5" target="ji5RjDv_zK_iG7Rdj1NN-7" edge="1">
            <mxGeometry width="50" height="50" relative="1" as="geometry">
              <mxPoint x="2210.153846153846" y="376" as="sourcePoint" />
              <mxPoint x="2203.846153846154" y="458" as="targetPoint" />
            </mxGeometry>
          </mxCell>
        </object>
        <object label="Eavesdrop on communications" Resources="3" Knowledge="3" Location="0" id="ji5RjDv_zK_iG7Rdj1NN-10">
          <ag_attributes label="NaN" Resources="5" Knowledge="5" Location="0" />
          <ag_computed_attributes fillColor="#40ff00" fontColor="#000000" value="1" />
          <ag_computed_attributes_function_reference ag_computed_attributes_function_reference="dbg60ff69g9a" />
          <ag_aggregation_function_reference ag_aggregation_function_reference="73f575i0ghij5" />
          <mxCell style="verticalAlign=top;align=center;fillColor=#fee599;gradientColor=none;labelBackgroundColor=none;rounded=0;whiteSpace=wrap;shape=attackgraphs.node;spacingRight=20;" parent="1" vertex="1">
            <mxGeometry x="2080" y="600" width="150" height="60" as="geometry" />
          </mxCell>
        </object>
        <object label="" id="ji5RjDv_zK_iG7Rdj1NN-11">
          <ag_attributes />
          <ag_computed_attributes />
          <mxCell style="endArrow=classic;rounded=0;strokeWidth=2;strokeColor=#000000;verticalAlign=top;spacingRight=20;" parent="1" source="ji5RjDv_zK_iG7Rdj1NN-6" target="ji5RjDv_zK_iG7Rdj1NN-10" edge="1">
            <mxGeometry width="50" height="50" relative="1" as="geometry">
              <mxPoint x="2283.25" y="378" as="sourcePoint" />
              <mxPoint x="2220.75" y="458" as="targetPoint" />
            </mxGeometry>
          </mxCell>
        </object>
        <object label="Insert and Exploit Backdoors" Resources="3" Knowledge="3" Location="0" id="ji5RjDv_zK_iG7Rdj1NN-12">
          <ag_attributes label="NaN" Resources="5" Knowledge="5" Location="0" />
          <ag_computed_attributes fillColor="#40ff00" fontColor="#000000" value="1" />
          <ag_computed_attributes_function_reference ag_computed_attributes_function_reference="dbg60ff69g9a" />
          <ag_aggregation_function_reference ag_aggregation_function_reference="73f575i0ghij5" />
          <mxCell style="verticalAlign=top;align=center;fillColor=#d7e3bf;gradientColor=none;labelBackgroundColor=none;rounded=0;whiteSpace=wrap;shape=attackgraphs.node;spacingRight=20;" parent="1" vertex="1">
            <mxGeometry x="2450" y="600" width="190" height="60" as="geometry" />
          </mxCell>
        </object>
        <object label="Inject malware" Resources="3" Knowledge="3" Location="0" id="ji5RjDv_zK_iG7Rdj1NN-13">
          <ag_attributes label="NaN" Resources="5" Knowledge="5" Location="0" />
          <ag_computed_attributes fillColor="#40ff00" fontColor="#000000" value="1" />
          <ag_computed_attributes_function_reference ag_computed_attributes_function_reference="dbg60ff69g9a" />
          <ag_aggregation_function_reference ag_aggregation_function_reference="73f575i0ghij5" />
          <mxCell style="verticalAlign=top;align=center;fillColor=#d7e3bf;gradientColor=none;labelBackgroundColor=none;rounded=0;whiteSpace=wrap;shape=attackgraphs.node;spacingRight=20;" parent="1" vertex="1">
            <mxGeometry x="2280" y="600" width="150" height="60" as="geometry" />
          </mxCell>
        </object>
        <object label="" id="ji5RjDv_zK_iG7Rdj1NN-14">
          <ag_attributes />
          <ag_computed_attributes />
          <mxCell style="endArrow=classic;rounded=0;strokeWidth=2;strokeColor=#000000;verticalAlign=top;spacingRight=20;" parent="1" source="ji5RjDv_zK_iG7Rdj1NN-7" target="ji5RjDv_zK_iG7Rdj1NN-13" edge="1">
            <mxGeometry width="50" height="50" relative="1" as="geometry">
              <mxPoint x="2202" y="506" as="sourcePoint" />
              <mxPoint x="2202" y="569" as="targetPoint" />
            </mxGeometry>
          </mxCell>
        </object>
        <object label="" id="ji5RjDv_zK_iG7Rdj1NN-15">
          <ag_attributes />
          <ag_computed_attributes />
          <mxCell style="endArrow=classic;rounded=0;strokeWidth=2;strokeColor=#000000;verticalAlign=top;spacingRight=20;" parent="1" source="ji5RjDv_zK_iG7Rdj1NN-7" target="ji5RjDv_zK_iG7Rdj1NN-12" edge="1">
            <mxGeometry width="50" height="50" relative="1" as="geometry">
              <mxPoint x="2212" y="516" as="sourcePoint" />
              <mxPoint x="2212" y="579" as="targetPoint" />
            </mxGeometry>
          </mxCell>
        </object>
        <object label="5" id="ji5RjDv_zK_iG7Rdj1NN-16">
          <ag_attributes />
          <ag_computed_attributes />
          <mxCell style="endArrow=classic;rounded=0;strokeWidth=2;strokeColor=#000000;fontSize=15;" parent="1" source="ji5RjDv_zK_iG7Rdj1NN-3" target="ji5RjDv_zK_iG7Rdj1NN-5" edge="1">
            <mxGeometry width="50" height="50" relative="1" as="geometry">
              <mxPoint x="2283.25" y="378" as="sourcePoint" />
              <mxPoint x="2220.75" y="458" as="targetPoint" />
            </mxGeometry>
          </mxCell>
        </object>
        <object label="Disclosure of Private Data&#10;(Location, Biometric Data)" id="ji5RjDv_zK_iG7Rdj1NN-17">
          <ag_attributes label="NaN" Resources="4" Knowledge="5" Location="0" _marking="ji5RjDv_zK_iG7Rdj1NN-23" />
          <ag_computed_attributes fillColor="#40ff00" fontColor="#000000" value="1" />
          <ag_aggregation_function_reference ag_aggregation_function_reference="6b1d22791hih8" />
          <ag_computed_attributes_function_reference ag_computed_attributes_function_reference="dbg60ff69g9a" />
          <mxCell style="verticalAlign=top;align=center;fillColor=#FFFFFF;gradientColor=none;labelBackgroundColor=none;rounded=0;whiteSpace=wrap;shape=attackgraphs.node;spacingRight=20;" parent="1" vertex="1">
            <mxGeometry x="1780" y="320" width="230" height="60" as="geometry" />
          </mxCell>
        </object>
        <object label="Extract Data" id="ji5RjDv_zK_iG7Rdj1NN-18">
          <ag_attributes label="NaN" Resources="5" Knowledge="5" Location="0" _marking="ji5RjDv_zK_iG7Rdj1NN-25" />
          <ag_computed_attributes fillColor="#40ff00" fontColor="#000000" value="1" />
          <ag_computed_attributes_function_reference ag_computed_attributes_function_reference="dbg60ff69g9a" />
          <ag_aggregation_function_reference ag_aggregation_function_reference="6b1d22791hih8" />
          <mxCell style="verticalAlign=top;align=center;fillColor=#FFFFFF;gradientColor=none;labelBackgroundColor=none;rounded=0;whiteSpace=wrap;shape=attackgraphs.node;spacingRight=20;" parent="1" vertex="1">
            <mxGeometry x="1860" y="424" width="150" height="60" as="geometry" />
          </mxCell>
        </object>
        <object label="" id="ji5RjDv_zK_iG7Rdj1NN-19">
          <ag_attributes />
          <ag_computed_attributes />
          <mxCell style="edgeStyle=none;startArrow=none;endArrow=classic;spacingTop=0;spacingBottom=0;spacingLeft=0;spacingRight=20;verticalAlign=top;labelBackgroundColor=#ffffff;rounded=0;align=center;entryX=0.6180555555555556;entryY=0;entryDx=0;entryDy=0;entryPerimeter=0;startFill=0;endFill=1;strokeWidth=2;strokeColor=#000000;" parent="1" source="ji5RjDv_zK_iG7Rdj1NN-17" target="ji5RjDv_zK_iG7Rdj1NN-18" edge="1">
            <mxGeometry relative="1" as="geometry">
              <mxPoint y="-1" as="offset" />
              <Array as="points" />
              <mxPoint x="1613.499999999999" y="436.5" as="sourcePoint" />
            </mxGeometry>
          </mxCell>
        </object>
        <object id="ji5RjDv_zK_iG7Rdj1NN-20">
          <ag_attributes />
          <ag_computed_attributes />
          <mxCell style="edgeStyle=none;startArrow=none;endArrow=classic;spacingTop=0;spacingBottom=0;spacingLeft=0;spacingRight=20;verticalAlign=top;labelBackgroundColor=#ffffff;startFill=0;endFill=1;strokeWidth=2;strokeColor=#000000;curved=1;" parent="1" source="ji5RjDv_zK_iG7Rdj1NN-17" target="ji5RjDv_zK_iG7Rdj1NN-10" edge="1">
            <mxGeometry relative="1" as="geometry">
              <mxPoint x="-1" y="-1" as="offset" />
              <Array as="points">
                <mxPoint x="2040" y="400" />
              </Array>
              <mxPoint x="1653.499999999999" y="436.5" as="sourcePoint" />
              <mxPoint x="1902" y="530" as="targetPoint" />
            </mxGeometry>
          </mxCell>
        </object>
        <object label="" id="ji5RjDv_zK_iG7Rdj1NN-21">
          <ag_attributes />
          <ag_computed_attributes />
          <mxCell style="endArrow=classic;startArrow=none;startFill=0;endFill=1;strokeWidth=2;strokeColor=#000000;verticalAlign=top;spacingRight=20;" parent="1" source="ji5RjDv_zK_iG7Rdj1NN-17" target="ji5RjDv_zK_iG7Rdj1NN-23" edge="1">
            <mxGeometry width="50" height="50" relative="1" as="geometry">
              <mxPoint x="1702.5" y="458.5" as="sourcePoint" />
              <mxPoint x="2046.8825910931173" y="518.5" as="targetPoint" />
            </mxGeometry>
          </mxCell>
        </object>
        <object label="Correlate Data Sets" Resources="1" Knowledge="2" Location="0" id="ji5RjDv_zK_iG7Rdj1NN-23">
          <ag_attributes label="NaN" Resources="4" Knowledge="5" Location="0" />
          <ag_computed_attributes fillColor="#40ff00" fontColor="#000000" value="1" />
          <ag_computed_attributes_function_reference ag_computed_attributes_function_reference="dbg60ff69g9a" />
          <ag_aggregation_function_reference ag_aggregation_function_reference="73f575i0ghij5" />
          <mxCell style="verticalAlign=top;align=center;fillColor=#d7e3bf;gradientColor=none;labelBackgroundColor=none;rounded=0;whiteSpace=wrap;shape=attackgraphs.node;spacingRight=20;" parent="1" vertex="1">
            <mxGeometry x="1700" y="424" width="150" height="60" as="geometry" />
          </mxCell>
        </object>
        <object label="4" id="ji5RjDv_zK_iG7Rdj1NN-24">
          <ag_attributes />
          <ag_computed_attributes />
          <mxCell style="endArrow=classic;rounded=0;strokeWidth=2;strokeColor=#000000;fontSize=15;" parent="1" source="ji5RjDv_zK_iG7Rdj1NN-2" target="ji5RjDv_zK_iG7Rdj1NN-17" edge="1">
            <mxGeometry width="50" height="50" relative="1" as="geometry">
              <mxPoint x="2284.4" y="258" as="sourcePoint" />
              <mxPoint x="2297.6" y="330" as="targetPoint" />
            </mxGeometry>
          </mxCell>
        </object>
        <object label="Inject malware" Resources="3" Knowledge="3" Location="0" id="ji5RjDv_zK_iG7Rdj1NN-25">
          <ag_attributes label="NaN" Resources="5" Knowledge="5" Location="0" />
          <ag_computed_attributes fillColor="#40ff00" fontColor="#000000" value="1" />
          <ag_computed_attributes_function_reference ag_computed_attributes_function_reference="dbg60ff69g9a" />
          <ag_aggregation_function_reference ag_aggregation_function_reference="73f575i0ghij5" />
          <mxCell style="verticalAlign=top;align=center;fillColor=#d7e3bf;gradientColor=none;labelBackgroundColor=none;rounded=0;whiteSpace=wrap;shape=attackgraphs.node;spacingRight=20;" parent="1" vertex="1">
            <mxGeometry x="1860" y="600" width="150" height="60" as="geometry" />
          </mxCell>
        </object>
        <object label="" id="ji5RjDv_zK_iG7Rdj1NN-26">
          <ag_attributes />
          <ag_computed_attributes />
          <mxCell style="edgeStyle=none;startArrow=none;endArrow=classic;spacingTop=0;spacingBottom=0;spacingLeft=0;spacingRight=20;verticalAlign=top;labelBackgroundColor=#ffffff;rounded=0;align=center;startFill=0;endFill=1;strokeWidth=2;strokeColor=#000000;" parent="1" source="ji5RjDv_zK_iG7Rdj1NN-18" target="ji5RjDv_zK_iG7Rdj1NN-25" edge="1">
            <mxGeometry relative="1" as="geometry">
              <mxPoint y="-1" as="offset" />
              <Array as="points" />
              <mxPoint x="1936.6923076923076" y="378" as="sourcePoint" />
              <mxPoint x="1959" y="458" as="targetPoint" />
            </mxGeometry>
          </mxCell>
        </object>
        <object label="" id="ji5RjDv_zK_iG7Rdj1NN-27">
          <ag_attributes />
          <ag_computed_attributes />
          <mxCell style="edgeStyle=none;startArrow=none;endArrow=classic;spacingTop=0;spacingBottom=0;spacingLeft=0;spacingRight=20;verticalAlign=top;labelBackgroundColor=#ffffff;rounded=0;align=center;startFill=0;endFill=1;strokeWidth=2;strokeColor=#000000;" parent="1" source="ji5RjDv_zK_iG7Rdj1NN-18" target="ji5RjDv_zK_iG7Rdj1NN-10" edge="1">
            <mxGeometry relative="1" as="geometry">
              <mxPoint y="-1" as="offset" />
              <Array as="points" />
              <mxPoint x="1890" y="540" as="sourcePoint" />
              <mxPoint x="1969" y="468" as="targetPoint" />
            </mxGeometry>
          </mxCell>
        </object>
        <object label="5" id="ji5RjDv_zK_iG7Rdj1NN-28">
          <ag_attributes />
          <ag_computed_attributes />
          <mxCell style="endArrow=classic;rounded=0;strokeWidth=2;strokeColor=#000000;fontSize=15;" parent="1" source="ji5RjDv_zK_iG7Rdj1NN-3" target="ji5RjDv_zK_iG7Rdj1NN-17" edge="1">
            <mxGeometry width="50" height="50" relative="1" as="geometry">
              <mxPoint x="1930" y="258" as="sourcePoint" />
              <mxPoint x="1930" y="330" as="targetPoint" />
            </mxGeometry>
          </mxCell>
        </object>
        <object label="4" id="ji5RjDv_zK_iG7Rdj1NN-29">
          <ag_attributes />
          <ag_computed_attributes />
          <mxCell style="endArrow=classic;rounded=0;strokeWidth=2;strokeColor=#000000;fontSize=15;" parent="1" source="ji5RjDv_zK_iG7Rdj1NN-2" target="ji5RjDv_zK_iG7Rdj1NN-5" edge="1">
            <mxGeometry width="50" height="50" relative="1" as="geometry">
              <mxPoint x="1940" y="268" as="sourcePoint" />
              <mxPoint x="1940" y="340" as="targetPoint" />
            </mxGeometry>
          </mxCell>
        </object>
        <object label="" id="ji5RjDv_zK_iG7Rdj1NN-30">
          <ag_attributes />
          <ag_computed_attributes />
          <mxCell style="endArrow=classic;rounded=0;strokeWidth=2;strokeColor=#000000;verticalAlign=top;spacingRight=20;" parent="1" source="ji5RjDv_zK_iG7Rdj1NN-5" target="ji5RjDv_zK_iG7Rdj1NN-18" edge="1">
            <mxGeometry width="50" height="50" relative="1" as="geometry">
              <mxPoint x="2283.25" y="378" as="sourcePoint" />
              <mxPoint x="2220.75" y="458" as="targetPoint" />
            </mxGeometry>
          </mxCell>
        </object>
        <object label="Tampering with cameras&#10;(cf. Travel and Life management)" Resources="3" Knowledge="3" Location="0" id="ji5RjDv_zK_iG7Rdj1NN-31">
          <ag_attributes label="NaN" Resources="5" Knowledge="5" Location="0" />
          <ag_computed_attributes fillColor="#40ff00" fontColor="#000000" value="1" />
          <ag_aggregation_function_reference ag_aggregation_function_reference="73f575i0ghij5" />
          <ag_computed_attributes_function_reference ag_computed_attributes_function_reference="dbg60ff69g9a" />
          <mxCell style="verticalAlign=top;align=center;fillColor=#fee599;gradientColor=none;labelBackgroundColor=none;rounded=0;whiteSpace=wrap;shape=attackgraphs.node;spacingRight=20;" parent="1" vertex="1">
            <mxGeometry x="1450" y="424" width="240" height="60" as="geometry" />
          </mxCell>
        </object>
        <object label="Limit availability of data&#10;(cf. contactless ticket control)" Resources="2" Knowledge="2" Location="0" id="ji5RjDv_zK_iG7Rdj1NN-32">
          <ag_attributes label="NaN" Resources="5" Knowledge="4" Location="0" />
          <ag_computed_attributes fillColor="#40ff00" fontColor="#000000" value="1" />
          <ag_aggregation_function_reference ag_aggregation_function_reference="73f575i0ghij5" />
          <ag_computed_attributes_function_reference ag_computed_attributes_function_reference="dbg60ff69g9a" />
          <ag_enabled ag_enabled="1" />
          <mxCell style="verticalAlign=top;align=center;fillColor=#fee599;gradientColor=none;labelBackgroundColor=none;rounded=0;whiteSpace=wrap;shape=attackgraphs.node;spacingRight=20;" parent="1" vertex="1">
            <mxGeometry x="960" y="320" width="280" height="60" as="geometry" />
          </mxCell>
        </object>
        <object label="5" id="ji5RjDv_zK_iG7Rdj1NN-41">
          <ag_attributes />
          <ag_computed_attributes />
          <mxCell style="endArrow=classic;rounded=0;strokeWidth=2;strokeColor=#000000;fontSize=15;" parent="1" source="ji5RjDv_zK_iG7Rdj1NN-4" target="ji5RjDv_zK_iG7Rdj1NN-71" edge="1">
            <mxGeometry width="50" height="50" relative="1" as="geometry">
              <mxPoint x="1358.7454545454543" y="270" as="sourcePoint" />
              <mxPoint x="940" y="512" as="targetPoint" />
            </mxGeometry>
          </mxCell>
        </object>
        <object label="4" id="ji5RjDv_zK_iG7Rdj1NN-42">
          <ag_attributes />
          <ag_computed_attributes />
          <mxCell style="endArrow=classic;rounded=0;strokeWidth=2;strokeColor=#000000;fontSize=15;html=1;" parent="1" source="ji5RjDv_zK_iG7Rdj1NN-4" target="ji5RjDv_zK_iG7Rdj1NN-32" edge="1">
            <mxGeometry width="50" height="50" relative="1" as="geometry">
              <mxPoint x="1315" y="270" as="sourcePoint" />
              <mxPoint x="1790" y="342" as="targetPoint" />
            </mxGeometry>
          </mxCell>
        </object>
        <object label="Disruption of communication" id="ji5RjDv_zK_iG7Rdj1NN-51">
          <ag_attributes label="NaN" Resources="4" Knowledge="5" Location="1" _marking="ji5RjDv_zK_iG7Rdj1NN-82" />
          <ag_computed_attributes fillColor="#40ff00" fontColor="#000000" value="1" />
          <ag_aggregation_function_reference ag_aggregation_function_reference="6b1d22791hih8" />
          <ag_computed_attributes_function_reference ag_computed_attributes_function_reference="dbg60ff69g9a" />
          <mxCell style="verticalAlign=top;align=center;fillColor=#FFFFFF;gradientColor=none;labelBackgroundColor=none;rounded=0;whiteSpace=wrap;shape=attackgraphs.node;spacingRight=20;" parent="1" vertex="1">
            <mxGeometry x="709" y="320" width="224" height="60" as="geometry" />
          </mxCell>
        </object>
        <object label="3" id="ji5RjDv_zK_iG7Rdj1NN-52">
          <ag_attributes />
          <ag_computed_attributes />
          <mxCell style="endArrow=classic;rounded=0;strokeWidth=2;strokeColor=#000000;fontSize=15;" parent="1" source="ji5RjDv_zK_iG7Rdj1NN-4" target="ji5RjDv_zK_iG7Rdj1NN-51" edge="1">
            <mxGeometry width="50" height="50" relative="1" as="geometry">
              <mxPoint x="1280" y="270" as="sourcePoint" />
              <mxPoint x="1343.3214285714284" y="344" as="targetPoint" />
            </mxGeometry>
          </mxCell>
        </object>
        <object label="" id="ji5RjDv_zK_iG7Rdj1NN-55">
          <ag_attributes />
          <ag_computed_attributes />
          <mxCell style="endArrow=classic;rounded=0;strokeWidth=2;strokeColor=#000000;verticalAlign=top;spacingRight=20;" parent="1" source="ji5RjDv_zK_iG7Rdj1NN-51" target="ji5RjDv_zK_iG7Rdj1NN-82" edge="1">
            <mxGeometry width="50" height="50" relative="1" as="geometry">
              <mxPoint x="72.1830769230769" y="413.5" as="sourcePoint" />
              <mxPoint x="-27.8662207357861" y="490" as="targetPoint" />
            </mxGeometry>
          </mxCell>
        </object>
        <object label="Manipulation of Sensors" id="ji5RjDv_zK_iG7Rdj1NN-71">
          <ag_attributes label="NaN" Resources="4" Knowledge="5" Location="1" _marking="ji5RjDv_zK_iG7Rdj1NN-73" />
          <ag_computed_attributes fillColor="#40ff00" fontColor="#000000" value="1" />
          <ag_aggregation_function_reference ag_aggregation_function_reference="6b1d22791hih8" />
          <ag_computed_attributes_function_reference ag_computed_attributes_function_reference="dbg60ff69g9a" />
          <mxCell style="verticalAlign=top;align=center;gradientColor=none;labelBackgroundColor=none;rounded=0;whiteSpace=wrap;fillColor=#FFFFFF;shape=attackgraphs.node;spacingRight=20;" parent="1" vertex="1">
            <mxGeometry x="1298" y="320" width="224" height="60" as="geometry" />
          </mxCell>
        </object>
        <object label="Block&#10;Passenger Counting" Resources="2" Knowledge="2" Location="1" id="ji5RjDv_zK_iG7Rdj1NN-74">
          <ag_attributes label="NaN" Resources="5" Knowledge="5" Location="1" />
          <ag_computed_attributes fillColor="#40ff00" fontColor="#000000" value="1" />
          <ag_computed_attributes_function_reference ag_computed_attributes_function_reference="dbg60ff69g9a" />
          <ag_aggregation_function_reference ag_aggregation_function_reference="73f575i0ghij5" />
          <mxCell style="verticalAlign=top;align=center;fillColor=#d7e3bf;gradientColor=none;labelBackgroundColor=none;rounded=0;whiteSpace=wrap;shape=attackgraphs.node;spacingRight=20;" parent="1" vertex="1">
            <mxGeometry x="1160" y="424" width="150" height="60" as="geometry" />
          </mxCell>
        </object>
        <object id="ji5RjDv_zK_iG7Rdj1NN-75">
          <ag_attributes />
          <ag_computed_attributes />
          <mxCell style="edgeStyle=none;startArrow=none;endArrow=classic;startSize=6;endSize=6;spacingTop=0;spacingBottom=0;spacingLeft=0;spacingRight=20;verticalAlign=top;labelBackgroundColor=#ffffff;rounded=0;endFill=1;strokeWidth=2;strokeColor=#000000;" parent="1" source="ji5RjDv_zK_iG7Rdj1NN-71" target="ji5RjDv_zK_iG7Rdj1NN-31" edge="1">
            <mxGeometry relative="1" as="geometry">
              <mxPoint x="-1" y="-1" as="offset" />
              <Array as="points" />
              <mxPoint x="930" y="717.5" as="sourcePoint" />
              <mxPoint x="493.44000000000005" y="511.80999999999995" as="targetPoint" />
            </mxGeometry>
          </mxCell>
        </object>
        <object id="ji5RjDv_zK_iG7Rdj1NN-77">
          <ag_attributes />
          <ag_computed_attributes />
          <mxCell style="edgeStyle=none;startArrow=none;endArrow=classic;startSize=6;endSize=6;spacingTop=0;spacingBottom=0;spacingLeft=0;spacingRight=20;verticalAlign=top;labelBackgroundColor=#ffffff;rounded=0;endFill=1;strokeWidth=2;strokeColor=#000000;" parent="1" source="ji5RjDv_zK_iG7Rdj1NN-71" target="ji5RjDv_zK_iG7Rdj1NN-73" edge="1">
            <mxGeometry relative="1" as="geometry">
              <mxPoint y="-1" as="offset" />
              <Array as="points" />
              <mxPoint x="871" y="717.5" as="targetPoint" />
              <mxPoint x="788" y="455.5" as="sourcePoint" />
            </mxGeometry>
          </mxCell>
        </object>
        <object id="ji5RjDv_zK_iG7Rdj1NN-79">
          <ag_attributes />
          <ag_computed_attributes />
          <mxCell style="edgeStyle=none;startArrow=none;endArrow=classic;startSize=6;endSize=6;spacingTop=0;spacingBottom=0;spacingLeft=0;spacingRight=20;verticalAlign=top;labelBackgroundColor=#ffffff;rounded=0;endFill=1;strokeWidth=2;strokeColor=#000000;" parent="1" source="ji5RjDv_zK_iG7Rdj1NN-71" target="ji5RjDv_zK_iG7Rdj1NN-74" edge="1">
            <mxGeometry relative="1" as="geometry">
              <mxPoint x="-1" y="-1" as="offset" />
              <Array as="points" />
              <mxPoint x="670" y="515.5" as="targetPoint" />
            </mxGeometry>
          </mxCell>
        </object>
        <object label="FRMCS Jamming" Resources="2" Knowledge="2" Location="1" id="ji5RjDv_zK_iG7Rdj1NN-82">
          <ag_attributes label="NaN" Resources="4" Knowledge="5" Location="1" />
          <ag_computed_attributes fillColor="#40ff00" fontColor="#000000" value="1" />
          <ag_computed_attributes_function_reference ag_computed_attributes_function_reference="dbg60ff69g9a" />
          <ag_aggregation_function_reference ag_aggregation_function_reference="73f575i0ghij5" />
          <mxCell style="verticalAlign=top;align=center;fillColor=#fee599;gradientColor=none;labelBackgroundColor=none;rounded=0;whiteSpace=wrap;shape=attackgraphs.node;spacingRight=20;" parent="1" vertex="1">
            <mxGeometry x="650" y="424" width="150" height="60" as="geometry" />
          </mxCell>
        </object>
        <object label="GNSS Spoofing" Resources="3" Knowledge="3" Location="1" id="ji5RjDv_zK_iG7Rdj1NN-84">
          <ag_attributes label="NaN" Resources="5" Knowledge="5" Location="1" />
          <ag_computed_attributes fillColor="#40ff00" fontColor="#000000" value="1" />
          <ag_computed_attributes_function_reference ag_computed_attributes_function_reference="dbg60ff69g9a" />
          <ag_aggregation_function_reference ag_aggregation_function_reference="73f575i0ghij5" />
          <mxCell style="verticalAlign=top;align=center;fillColor=#fee599;gradientColor=none;labelBackgroundColor=none;rounded=0;whiteSpace=wrap;shape=attackgraphs.node;spacingRight=20;" parent="1" vertex="1">
            <mxGeometry x="1410" y="600" width="150" height="60" as="geometry" />
          </mxCell>
        </object>
        <object id="ji5RjDv_zK_iG7Rdj1NN-85">
          <ag_attributes />
          <ag_computed_attributes />
          <mxCell style="edgeStyle=none;startArrow=none;endArrow=classic;startSize=6;endSize=6;spacingTop=0;spacingBottom=0;spacingLeft=0;spacingRight=20;verticalAlign=top;labelBackgroundColor=#ffffff;rounded=0;endFill=1;strokeWidth=2;strokeColor=#000000;" parent="1" source="ji5RjDv_zK_iG7Rdj1NN-71" target="ji5RjDv_zK_iG7Rdj1NN-84" edge="1">
            <mxGeometry relative="1" as="geometry">
              <mxPoint y="-1" as="offset" />
              <Array as="points" />
              <mxPoint x="1330.0951831554662" y="523.8499999999999" as="targetPoint" />
              <mxPoint x="1406.15517738679" y="392" as="sourcePoint" />
            </mxGeometry>
          </mxCell>
        </object>
        <object label="Financial Damage Individual" id="ji5RjDv_zK_iG7Rdj1NN-87">
          <ag_attributes _risk="L" _marking="ji5RjDv_zK_iG7Rdj1NN-88" _weight="ji5RjDv_zK_iG7Rdj1NN-88:2" />
          <ag_computed_attributes fillColor="#40ff00" fontColor="#000000" value="L" />
          <ag_aggregation_function_reference ag_aggregation_function_reference="egf49jfgj408" />
          <ag_computed_attributes_function_reference ag_computed_attributes_function_reference="6c831697g9i0a" />
          <mxCell style="verticalAlign=middle;align=center;fillColor=#FFFFFF;gradientColor=none;labelBackgroundColor=none;rounded=1;whiteSpace=wrap;shape=attackgraphs.node;" parent="1" vertex="1">
            <mxGeometry x="30" y="200" width="180" height="48" as="geometry" />
          </mxCell>
        </object>
        <object label="Manipulation of Sensors" id="ji5RjDv_zK_iG7Rdj1NN-88">
          <ag_attributes label="NaN" Resources="5" Knowledge="5" Location="1" _marking="ji5RjDv_zK_iG7Rdj1NN-90" />
          <ag_computed_attributes fillColor="#40ff00" fontColor="#000000" value="1" />
          <ag_aggregation_function_reference ag_aggregation_function_reference="6b1d22791hih8" />
          <ag_computed_attributes_function_reference ag_computed_attributes_function_reference="dbg60ff69g9a" />
          <mxCell style="verticalAlign=top;align=center;gradientColor=none;labelBackgroundColor=none;rounded=0;whiteSpace=wrap;fillColor=#FFFFFF;shape=attackgraphs.node;spacingRight=20;" parent="1" vertex="1">
            <mxGeometry x="45" y="320" width="150" height="60" as="geometry" />
          </mxCell>
        </object>
        <object id="ji5RjDv_zK_iG7Rdj1NN-89">
          <ag_attributes />
          <ag_computed_attributes />
          <mxCell style="edgeStyle=none;startArrow=none;endArrow=classic;startSize=6;endSize=6;spacingTop=0;spacingBottom=0;spacingLeft=0;spacingRight=20;verticalAlign=top;labelBackgroundColor=#ffffff;rounded=0;endFill=1;strokeWidth=2;strokeColor=#000000;" parent="1" source="ji5RjDv_zK_iG7Rdj1NN-88" target="ji5RjDv_zK_iG7Rdj1NN-90" edge="1">
            <mxGeometry relative="1" as="geometry">
              <mxPoint y="-1" as="offset" />
              <Array as="points" />
              <mxPoint x="30.095183155466202" y="538.3499999999999" as="targetPoint" />
              <mxPoint x="106.15517738679" y="406.5" as="sourcePoint" />
            </mxGeometry>
          </mxCell>
        </object>
        <object label="GNSS Spoofing" Resources="3" Knowledge="3" Location="1" id="ji5RjDv_zK_iG7Rdj1NN-90">
          <ag_attributes label="NaN" Resources="5" Knowledge="5" Location="1" />
          <ag_computed_attributes fillColor="#40ff00" fontColor="#000000" value="1" />
          <ag_computed_attributes_function_reference ag_computed_attributes_function_reference="dbg60ff69g9a" />
          <ag_aggregation_function_reference ag_aggregation_function_reference="73f575i0ghij5" />
          <mxCell style="verticalAlign=top;align=center;fillColor=#fee599;gradientColor=none;labelBackgroundColor=none;rounded=0;whiteSpace=wrap;shape=attackgraphs.node;spacingRight=20;" parent="1" vertex="1">
            <mxGeometry x="45" y="424" width="150" height="60" as="geometry" />
          </mxCell>
        </object>
        <object label="2" id="ji5RjDv_zK_iG7Rdj1NN-91">
          <ag_attributes />
          <ag_computed_attributes />
          <mxCell style="endArrow=classic;rounded=0;strokeWidth=2;strokeColor=#000000;fontSize=15;" parent="1" source="ji5RjDv_zK_iG7Rdj1NN-87" target="ji5RjDv_zK_iG7Rdj1NN-88" edge="1">
            <mxGeometry width="50" height="50" relative="1" as="geometry">
              <mxPoint x="672.8805970149251" y="264.5" as="sourcePoint" />
              <mxPoint x="529.1194029850744" y="350.5" as="targetPoint" />
            </mxGeometry>
          </mxCell>
        </object>
        <object label="Manipulating AI&#10;(cf. Travel and Life Management)" Resources="3" Knowledge="3" Location="0" id="ji5RjDv_zK_iG7Rdj1NN-93">
          <ag_attributes label="NaN" Resources="5" Knowledge="5" Location="1" />
          <ag_computed_attributes fillColor="#40ff00" fontColor="#000000" value="1" />
          <ag_aggregation_function_reference ag_aggregation_function_reference="73f575i0ghij5" />
          <ag_computed_attributes_function_reference ag_computed_attributes_function_reference="dbg60ff69g9a" />
          <mxCell style="verticalAlign=top;align=center;fillColor=#fee599;gradientColor=none;labelBackgroundColor=none;rounded=0;whiteSpace=wrap;shape=attackgraphs.node;spacingRight=20;" parent="1" vertex="1">
            <mxGeometry x="390" y="424" width="240" height="60" as="geometry" />
          </mxCell>
        </object>
        <object label="Manipulation of the algorithm" id="ji5RjDv_zK_iG7Rdj1NN-98">
          <ag_attributes label="NaN" Resources="5" Knowledge="5" Location="1" _marking="ji5RjDv_zK_iG7Rdj1NN-93" />
          <ag_computed_attributes fillColor="#40ff00" fontColor="#000000" value="1" />
          <ag_aggregation_function_reference ag_aggregation_function_reference="6b1d22791hih8" />
          <ag_computed_attributes_function_reference ag_computed_attributes_function_reference="dbg60ff69g9a" />
          <mxCell style="verticalAlign=top;align=center;fillColor=#FFFFFF;gradientColor=none;labelBackgroundColor=none;rounded=0;whiteSpace=wrap;shape=attackgraphs.node;spacingRight=20;" parent="1" vertex="1">
            <mxGeometry x="452" y="320" width="224" height="60" as="geometry" />
          </mxCell>
        </object>
        <object label="" id="ji5RjDv_zK_iG7Rdj1NN-99">
          <ag_attributes />
          <ag_computed_attributes />
          <mxCell style="endArrow=classic;rounded=0;strokeWidth=2;strokeColor=#000000;verticalAlign=top;spacingRight=20;" parent="1" source="ji5RjDv_zK_iG7Rdj1NN-98" target="ji5RjDv_zK_iG7Rdj1NN-93" edge="1">
            <mxGeometry width="50" height="50" relative="1" as="geometry">
              <mxPoint x="862.1785714285716" y="292" as="sourcePoint" />
              <mxPoint x="813.3214285714284" y="356" as="targetPoint" />
            </mxGeometry>
          </mxCell>
        </object>
        <object label="5" id="ji5RjDv_zK_iG7Rdj1NN-100">
          <ag_attributes />
          <ag_computed_attributes />
          <mxCell style="endArrow=classic;rounded=0;strokeWidth=2;strokeColor=#000000;fontSize=15;" parent="1" source="ji5RjDv_zK_iG7Rdj1NN-4" target="ji5RjDv_zK_iG7Rdj1NN-98" edge="1">
            <mxGeometry width="50" height="50" relative="1" as="geometry">
              <mxPoint x="1014.8805970149251" y="258" as="sourcePoint" />
              <mxPoint x="871.1194029850744" y="344" as="targetPoint" />
            </mxGeometry>
          </mxCell>
        </object>
        <object label="Manipulation of the database&#10;(cf. Intermodal Travel Chain)" Resources="5" Knowledge="5" Location="0" id="ji5RjDv_zK_iG7Rdj1NN-101">
          <ag_attributes />
          <ag_computed_attributes fillColor="#40ff00" fontColor="#000000" value="1" />
          <ag_aggregation_function_reference ag_aggregation_function_reference="6b1d22791hih8" />
          <ag_computed_attributes_function_reference ag_computed_attributes_function_reference="dbg60ff69g9a" />
          <mxCell style="verticalAlign=top;align=center;fillColor=#fee599;gradientColor=none;labelBackgroundColor=none;rounded=0;whiteSpace=wrap;shape=attackgraphs.node;spacingRight=20;" parent="1" vertex="1">
            <mxGeometry x="210" y="320" width="226" height="60" as="geometry" />
          </mxCell>
        </object>
        <object label="5" id="ji5RjDv_zK_iG7Rdj1NN-114">
          <ag_attributes />
          <ag_computed_attributes />
          <mxCell style="endArrow=classic;rounded=0;strokeWidth=2;strokeColor=#000000;fontSize=15;" parent="1" source="ji5RjDv_zK_iG7Rdj1NN-4" target="ji5RjDv_zK_iG7Rdj1NN-101" edge="1">
            <mxGeometry width="50" height="50" relative="1" as="geometry">
              <mxPoint x="53.470588235294144" y="394" as="sourcePoint" />
              <mxPoint x="3" y="438" as="targetPoint" />
            </mxGeometry>
          </mxCell>
        </object>
        <object label="Jamming satellite radio communication" Resources="2" Knowledge="2" Location="1" id="knxSxaAcGiVm8cXCT0h6-2">
          <ag_attributes label="NaN" Resources="4" Knowledge="5" Location="1" />
          <ag_computed_attributes fillColor="#40ff00" fontColor="#000000" value="1" />
          <ag_computed_attributes_function_reference ag_computed_attributes_function_reference="dbg60ff69g9a" />
          <ag_aggregation_function_reference ag_aggregation_function_reference="73f575i0ghij5" />
          <mxCell style="verticalAlign=top;align=center;fillColor=#fee599;gradientColor=none;labelBackgroundColor=none;rounded=0;whiteSpace=wrap;shape=attackgraphs.node;spacingRight=20;" parent="1" vertex="1">
            <mxGeometry x="821" y="424" width="150" height="60" as="geometry" />
          </mxCell>
        </object>
        <object label="" id="knxSxaAcGiVm8cXCT0h6-3">
          <ag_attributes />
          <ag_computed_attributes />
          <mxCell style="endArrow=classic;rounded=0;strokeWidth=2;strokeColor=#000000;verticalAlign=top;spacingRight=20;" parent="1" source="ji5RjDv_zK_iG7Rdj1NN-51" target="knxSxaAcGiVm8cXCT0h6-2" edge="1">
            <mxGeometry width="50" height="50" relative="1" as="geometry">
              <mxPoint x="800.4177215189875" y="392" as="sourcePoint" />
              <mxPoint x="702.2995780590718" y="469" as="targetPoint" />
            </mxGeometry>
          </mxCell>
        </object>
        <object label="Eavesdrop on mobile device" Resources="3" Knowledge="4" Location="0" id="knxSxaAcGiVm8cXCT0h6-4">
          <ag_attributes label="NaN" Resources="5" Knowledge="5" Location="1" />
          <ag_computed_attributes fillColor="#40ff00" fontColor="#000000" value="1" />
          <ag_computed_attributes_function_reference ag_computed_attributes_function_reference="dbg60ff69g9a" />
          <ag_aggregation_function_reference ag_aggregation_function_reference="73f575i0ghij5" />
          <mxCell style="verticalAlign=top;align=center;fillColor=#fee599;gradientColor=none;labelBackgroundColor=none;rounded=0;whiteSpace=wrap;shape=attackgraphs.node;spacingRight=20;" parent="1" vertex="1">
            <mxGeometry x="2520" y="424" width="150" height="60" as="geometry" />
          </mxCell>
        </object>
        <object label="" id="knxSxaAcGiVm8cXCT0h6-6">
          <ag_attributes />
          <ag_computed_attributes />
          <mxCell style="endArrow=classic;rounded=0;strokeWidth=2;strokeColor=#000000;verticalAlign=top;spacingRight=20;" parent="1" source="ji5RjDv_zK_iG7Rdj1NN-5" target="knxSxaAcGiVm8cXCT0h6-4" edge="1">
            <mxGeometry width="50" height="50" relative="1" as="geometry">
              <mxPoint x="2540" y="340" as="sourcePoint" />
              <mxPoint x="2401.375" y="468" as="targetPoint" />
            </mxGeometry>
          </mxCell>
        </object>
        <object id="_y_ssn7lcCSD5tmnGD-H-3">
          <ag_attributes />
          <ag_computed_attributes />
          <mxCell style="edgeStyle=none;rounded=0;orthogonalLoop=1;jettySize=auto;html=1;strokeWidth=2;startArrow=diamondThin;startFill=1;endArrow=none;endFill=0;strokeColor=#000000;" parent="1" source="ji5RjDv_zK_iG7Rdj1NN-31" target="_y_ssn7lcCSD5tmnGD-H-2" edge="1">
            <mxGeometry relative="1" as="geometry">
              <mxPoint x="1599.997894736842" y="530" as="sourcePoint" />
              <mxPoint x="866.5315563839703" y="1236" as="targetPoint" />
            </mxGeometry>
          </mxCell>
        </object>
        <object label="Redundancy&#10;Plausibility Check" Resources="3" Knowledge="2" Location="0" id="g9N-B0egAPL_NO05jRid-2">
          <ag_attributes />
          <ag_computed_attributes />
          <mxCell style="shape=attackgraphs.node;fillColor=#DAE8FC;verticalAlign=top;" parent="1" vertex="1">
            <mxGeometry x="10" y="960" width="150" height="75" as="geometry" />
          </mxCell>
        </object>
        <object label="Digital Signature" Resources="2" Knowledge="2" Location="1" id="g9N-B0egAPL_NO05jRid-3">
          <ag_attributes />
          <ag_computed_attributes />
          <mxCell style="shape=attackgraphs.node;fillColor=#DAE8FC;verticalAlign=top;" parent="1" vertex="1">
            <mxGeometry x="120" y="750" width="150" height="60" as="geometry" />
          </mxCell>
        </object>
        <object label="" id="g9N-B0egAPL_NO05jRid-4">
          <ag_attributes />
          <ag_computed_attributes />
          <mxCell style="endArrow=none;dashed=1;html=1;rounded=0;strokeWidth=1;strokeColor=#000000;" parent="1" edge="1">
            <mxGeometry width="50" height="50" relative="1" as="geometry">
              <mxPoint x="40" y="920" as="sourcePoint" />
              <mxPoint x="2800" y="920" as="targetPoint" />
            </mxGeometry>
          </mxCell>
        </object>
        <object id="g9N-B0egAPL_NO05jRid-5">
          <ag_attributes />
          <ag_computed_attributes />
          <mxCell style="edgeStyle=none;rounded=0;orthogonalLoop=1;jettySize=auto;html=1;strokeWidth=2;startArrow=diamondThin;startFill=1;endArrow=none;endFill=0;strokeColor=#000000;" parent="1" source="ji5RjDv_zK_iG7Rdj1NN-90" target="g9N-B0egAPL_NO05jRid-3" edge="1">
            <mxGeometry relative="1" as="geometry">
              <mxPoint x="1969.997894736842" y="530" as="sourcePoint" />
              <mxPoint x="1236.5315563839704" y="1236" as="targetPoint" />
            </mxGeometry>
          </mxCell>
        </object>
        <object id="g9N-B0egAPL_NO05jRid-6">
          <ag_attributes />
          <ag_computed_attributes />
          <mxCell style="edgeStyle=none;rounded=0;orthogonalLoop=1;jettySize=auto;html=1;strokeWidth=2;startArrow=diamondThin;startFill=1;endArrow=none;endFill=0;strokeColor=#000000;" parent="1" source="ji5RjDv_zK_iG7Rdj1NN-90" target="g9N-B0egAPL_NO05jRid-2" edge="1">
            <mxGeometry relative="1" as="geometry">
              <mxPoint x="1969.997894736842" y="530" as="sourcePoint" />
              <mxPoint x="1236.5315563839704" y="1236" as="targetPoint" />
            </mxGeometry>
          </mxCell>
        </object>
        <object label="Access Control&#10;Awareness Training&#10;Secure Data Storage&#10;Robustness" Resources="2" Knowledge="2" Location="1" id="g9N-B0egAPL_NO05jRid-7">
          <ag_attributes />
          <ag_computed_attributes />
          <mxCell style="shape=attackgraphs.node;fillColor=#DAE8FC;verticalAlign=top;" parent="1" vertex="1">
            <mxGeometry x="435" y="865" width="150" height="95" as="geometry" />
          </mxCell>
        </object>
        <object id="g9N-B0egAPL_NO05jRid-8">
          <ag_attributes />
          <ag_computed_attributes />
          <mxCell style="edgeStyle=none;rounded=0;orthogonalLoop=1;jettySize=auto;html=1;strokeWidth=2;startArrow=diamondThin;startFill=1;endArrow=none;endFill=0;strokeColor=#000000;" parent="1" source="ji5RjDv_zK_iG7Rdj1NN-93" target="g9N-B0egAPL_NO05jRid-7" edge="1">
            <mxGeometry relative="1" as="geometry">
              <mxPoint x="1599.997894736842" y="530" as="sourcePoint" />
              <mxPoint x="866.5315563839703" y="1236" as="targetPoint" />
            </mxGeometry>
          </mxCell>
        </object>
        <object id="g9N-B0egAPL_NO05jRid-10">
          <ag_attributes />
          <ag_computed_attributes />
          <mxCell style="edgeStyle=none;rounded=0;orthogonalLoop=1;jettySize=auto;html=1;strokeWidth=2;startArrow=diamondThin;startFill=1;endArrow=none;endFill=0;strokeColor=#000000;" parent="1" source="ji5RjDv_zK_iG7Rdj1NN-32" target="g9N-B0egAPL_NO05jRid-9" edge="1">
            <mxGeometry relative="1" as="geometry">
              <mxPoint x="1599.997894736842" y="530" as="sourcePoint" />
              <mxPoint x="866.5315563839703" y="1236" as="targetPoint" />
            </mxGeometry>
          </mxCell>
        </object>
        <object label="Encryption" Resources="2" Knowledge="2" Location="0" id="g9N-B0egAPL_NO05jRid-11">
          <ag_attributes />
          <ag_computed_attributes />
          <mxCell style="shape=attackgraphs.node;fillColor=#DAE8FC;verticalAlign=top;" parent="1" vertex="1">
            <mxGeometry x="2080" y="750" width="150" height="45" as="geometry" />
          </mxCell>
        </object>
        <object label="Malware Protection&#10;Firewall&#10;Vulnerabilityscans&#10;Penetration testing&#10;Awareness Training" Resources="2" Knowledge="3" Location="0" id="g9N-B0egAPL_NO05jRid-12">
          <ag_attributes />
          <ag_computed_attributes />
          <mxCell style="shape=attackgraphs.node;fillColor=#DAE8FC;align=left;verticalAlign=top;" parent="1" vertex="1">
            <mxGeometry x="2330" y="750" width="210" height="110" as="geometry" />
          </mxCell>
        </object>
        <object id="g9N-B0egAPL_NO05jRid-13">
          <ag_attributes />
          <ag_computed_attributes />
          <mxCell style="rounded=0;orthogonalLoop=1;jettySize=auto;html=1;strokeWidth=2;startArrow=none;startFill=0;endArrow=none;endFill=0;strokeColor=#000000;verticalAlign=top;" parent="1" source="g9N-B0egAPL_NO05jRid-12" target="g9N-B0egAPL_NO05jRid-14" edge="1">
            <mxGeometry relative="1" as="geometry">
              <mxPoint x="2025.635922330097" y="877.5" as="sourcePoint" />
            </mxGeometry>
          </mxCell>
        </object>
        <object label="Responsiveness to security vulnerabilities" id="g9N-B0egAPL_NO05jRid-14">
          <ag_attributes />
          <ag_computed_attributes />
          <mxCell style="shape=attackgraphs.node;fillColor=#DAE8FC;verticalAlign=top;" parent="1" vertex="1">
            <mxGeometry x="2320" y="942.5" width="230" height="75" as="geometry" />
          </mxCell>
        </object>
        <object id="g9N-B0egAPL_NO05jRid-15">
          <ag_attributes />
          <ag_computed_attributes />
          <mxCell style="edgeStyle=none;rounded=0;orthogonalLoop=1;jettySize=auto;html=1;strokeWidth=2;startArrow=diamondThin;startFill=1;endArrow=none;endFill=0;strokeColor=#000000;" parent="1" source="ji5RjDv_zK_iG7Rdj1NN-10" target="g9N-B0egAPL_NO05jRid-11" edge="1">
            <mxGeometry relative="1" as="geometry">
              <mxPoint x="1599.997894736842" y="530" as="sourcePoint" />
              <mxPoint x="866.5315563839703" y="1236" as="targetPoint" />
            </mxGeometry>
          </mxCell>
        </object>
        <object id="g9N-B0egAPL_NO05jRid-16">
          <ag_attributes />
          <ag_computed_attributes />
          <mxCell style="edgeStyle=none;rounded=0;orthogonalLoop=1;jettySize=auto;html=1;strokeWidth=2;startArrow=diamondThin;startFill=1;endArrow=none;endFill=0;strokeColor=#000000;" parent="1" source="ji5RjDv_zK_iG7Rdj1NN-25" target="g9N-B0egAPL_NO05jRid-12" edge="1">
            <mxGeometry relative="1" as="geometry">
              <mxPoint x="1599.997894736842" y="530" as="sourcePoint" />
              <mxPoint x="866.5315563839703" y="1236" as="targetPoint" />
            </mxGeometry>
          </mxCell>
        </object>
        <object id="g9N-B0egAPL_NO05jRid-17">
          <ag_attributes />
          <ag_computed_attributes />
          <mxCell style="edgeStyle=none;rounded=0;orthogonalLoop=1;jettySize=auto;html=1;strokeWidth=2;startArrow=diamondThin;startFill=1;endArrow=none;endFill=0;strokeColor=#000000;" parent="1" source="ji5RjDv_zK_iG7Rdj1NN-12" target="g9N-B0egAPL_NO05jRid-12" edge="1">
            <mxGeometry relative="1" as="geometry">
              <mxPoint x="1599.997894736842" y="530" as="sourcePoint" />
              <mxPoint x="866.5315563839703" y="1236" as="targetPoint" />
            </mxGeometry>
          </mxCell>
        </object>
        <object label="Privacy Enhancing Technologies" Resources="2" Knowledge="2" Location="0" id="g9N-B0egAPL_NO05jRid-18">
          <ag_attributes />
          <ag_computed_attributes />
          <mxCell style="shape=attackgraphs.node;fillColor=#DAE8FC;verticalAlign=top;" parent="1" vertex="1">
            <mxGeometry x="1802" y="960" width="208" height="60" as="geometry" />
          </mxCell>
        </object>
        <object label="Data Minimization" Resources="1" Knowledge="1" Location="0" id="g9N-B0egAPL_NO05jRid-19">
          <ag_attributes />
          <ag_computed_attributes />
          <mxCell style="shape=attackgraphs.node;fillColor=#DAE8FC;verticalAlign=top;" parent="1" vertex="1">
            <mxGeometry x="1640" y="960" width="150" height="60" as="geometry" />
          </mxCell>
        </object>
        <object id="g9N-B0egAPL_NO05jRid-20">
          <ag_attributes />
          <ag_computed_attributes />
          <mxCell style="edgeStyle=none;rounded=0;orthogonalLoop=1;jettySize=auto;html=1;strokeWidth=2;startArrow=diamondThin;startFill=1;endArrow=none;endFill=0;strokeColor=#000000;" parent="1" source="ji5RjDv_zK_iG7Rdj1NN-23" target="g9N-B0egAPL_NO05jRid-19" edge="1">
            <mxGeometry relative="1" as="geometry">
              <mxPoint x="1599.997894736842" y="530" as="sourcePoint" />
              <mxPoint x="866.5315563839703" y="1236" as="targetPoint" />
            </mxGeometry>
          </mxCell>
        </object>
        <object id="g9N-B0egAPL_NO05jRid-21">
          <ag_attributes />
          <ag_computed_attributes />
          <mxCell style="edgeStyle=none;rounded=0;orthogonalLoop=1;jettySize=auto;html=1;strokeWidth=2;startArrow=diamondThin;startFill=1;endArrow=none;endFill=0;strokeColor=#000000;" parent="1" source="ji5RjDv_zK_iG7Rdj1NN-23" target="g9N-B0egAPL_NO05jRid-18" edge="1">
            <mxGeometry relative="1" as="geometry">
              <mxPoint x="1599.997894736842" y="530" as="sourcePoint" />
              <mxPoint x="866.5315563839703" y="1236" as="targetPoint" />
            </mxGeometry>
          </mxCell>
        </object>
        <object id="g9N-B0egAPL_NO05jRid-22">
          <ag_attributes />
          <ag_computed_attributes />
          <mxCell style="edgeStyle=none;rounded=0;orthogonalLoop=1;jettySize=auto;html=1;strokeWidth=2;startArrow=diamondThin;startFill=1;endArrow=none;endFill=0;strokeColor=#000000;" parent="1" source="ji5RjDv_zK_iG7Rdj1NN-13" target="g9N-B0egAPL_NO05jRid-12" edge="1">
            <mxGeometry relative="1" as="geometry">
              <mxPoint x="1599.997894736842" y="530" as="sourcePoint" />
              <mxPoint x="866.5315563839703" y="1236" as="targetPoint" />
            </mxGeometry>
          </mxCell>
        </object>
        <object label="Hardened Device&#10;Restrictid Permissions&#10;Malware Protection" Resources="2" Knowledge="2" Location="1" id="g9N-B0egAPL_NO05jRid-23">
          <ag_attributes />
          <ag_computed_attributes />
          <mxCell style="shape=attackgraphs.node;fillColor=#DAE8FC;verticalAlign=top;" parent="1" vertex="1">
            <mxGeometry x="2630" y="750" width="170" height="75" as="geometry" />
          </mxCell>
        </object>
        <object id="g9N-B0egAPL_NO05jRid-24">
          <ag_attributes />
          <ag_computed_attributes />
          <mxCell style="edgeStyle=none;rounded=0;orthogonalLoop=1;jettySize=auto;html=1;strokeWidth=2;startArrow=diamondThin;startFill=1;endArrow=none;endFill=0;strokeColor=#000000;" parent="1" source="knxSxaAcGiVm8cXCT0h6-4" target="g9N-B0egAPL_NO05jRid-23" edge="1">
            <mxGeometry relative="1" as="geometry">
              <mxPoint x="1599.997894736842" y="530" as="sourcePoint" />
              <mxPoint x="866.5315563839703" y="1236" as="targetPoint" />
            </mxGeometry>
          </mxCell>
        </object>
        <object label="Resilience" Resources="2" Knowledge="3" Location="0" id="g9N-B0egAPL_NO05jRid-25">
          <ag_attributes />
          <ag_computed_attributes />
          <mxCell style="shape=attackgraphs.node;fillColor=#DAE8FC;verticalAlign=top;" parent="1" vertex="1">
            <mxGeometry x="940" y="960" width="150" height="60" as="geometry" />
          </mxCell>
        </object>
        <object id="g9N-B0egAPL_NO05jRid-26">
          <ag_attributes />
          <ag_computed_attributes />
          <mxCell style="edgeStyle=none;rounded=0;orthogonalLoop=1;jettySize=auto;html=1;strokeWidth=2;startArrow=diamondThin;startFill=1;endArrow=none;endFill=0;strokeColor=#000000;" parent="1" source="ji5RjDv_zK_iG7Rdj1NN-82" target="g9N-B0egAPL_NO05jRid-25" edge="1">
            <mxGeometry relative="1" as="geometry">
              <mxPoint x="1599.997894736842" y="530" as="sourcePoint" />
              <mxPoint x="866.5315563839703" y="1236" as="targetPoint" />
            </mxGeometry>
          </mxCell>
        </object>
        <object id="g9N-B0egAPL_NO05jRid-27">
          <ag_attributes />
          <ag_computed_attributes />
          <mxCell style="edgeStyle=none;rounded=0;orthogonalLoop=1;jettySize=auto;html=1;strokeWidth=2;startArrow=diamondThin;startFill=1;endArrow=none;endFill=0;strokeColor=#000000;" parent="1" source="knxSxaAcGiVm8cXCT0h6-2" target="g9N-B0egAPL_NO05jRid-25" edge="1">
            <mxGeometry relative="1" as="geometry">
              <mxPoint x="1599.997894736842" y="530" as="sourcePoint" />
              <mxPoint x="866.5315563839703" y="1236" as="targetPoint" />
            </mxGeometry>
          </mxCell>
        </object>
        <object id="g9N-B0egAPL_NO05jRid-28">
          <ag_attributes />
          <ag_computed_attributes />
          <mxCell style="edgeStyle=none;rounded=0;orthogonalLoop=1;jettySize=auto;html=1;strokeWidth=2;startArrow=diamondThin;startFill=1;endArrow=none;endFill=0;strokeColor=#000000;" parent="1" source="ji5RjDv_zK_iG7Rdj1NN-73" target="g9N-B0egAPL_NO05jRid-25" edge="1">
            <mxGeometry relative="1" as="geometry">
              <mxPoint x="1599.997894736842" y="530" as="sourcePoint" />
              <mxPoint x="866.5315563839703" y="1236" as="targetPoint" />
            </mxGeometry>
          </mxCell>
        </object>
        <object label="Redundancy&#10;Plausibility Check" Resources="3" Knowledge="2" Location="0" id="g9N-B0egAPL_NO05jRid-29">
          <ag_attributes />
          <ag_computed_attributes />
          <mxCell style="shape=attackgraphs.node;fillColor=#DAE8FC;verticalAlign=top;" parent="1" vertex="1">
            <mxGeometry x="1350" y="960" width="150" height="75" as="geometry" />
          </mxCell>
        </object>
        <object id="g9N-B0egAPL_NO05jRid-31">
          <ag_attributes />
          <ag_computed_attributes />
          <mxCell style="edgeStyle=none;rounded=0;orthogonalLoop=1;jettySize=auto;html=1;strokeWidth=2;startArrow=diamondThin;startFill=1;endArrow=none;endFill=0;strokeColor=#000000;" parent="1" source="ji5RjDv_zK_iG7Rdj1NN-84" target="g9N-B0egAPL_NO05jRid-30" edge="1">
            <mxGeometry relative="1" as="geometry">
              <mxPoint x="1599.997894736842" y="530" as="sourcePoint" />
              <mxPoint x="866.5315563839703" y="1236" as="targetPoint" />
            </mxGeometry>
          </mxCell>
        </object>
        <object id="g9N-B0egAPL_NO05jRid-32">
          <ag_attributes />
          <ag_computed_attributes />
          <mxCell style="edgeStyle=none;rounded=0;orthogonalLoop=1;jettySize=auto;html=1;strokeWidth=2;startArrow=diamondThin;startFill=1;endArrow=none;endFill=0;strokeColor=#000000;" parent="1" source="ji5RjDv_zK_iG7Rdj1NN-84" target="g9N-B0egAPL_NO05jRid-29" edge="1">
            <mxGeometry relative="1" as="geometry">
              <mxPoint x="1599.997894736842" y="530" as="sourcePoint" />
              <mxPoint x="866.5315563839703" y="1236" as="targetPoint" />
            </mxGeometry>
          </mxCell>
        </object>
        <object id="g9N-B0egAPL_NO05jRid-33">
          <ag_attributes />
          <ag_computed_attributes />
          <mxCell style="edgeStyle=none;rounded=0;orthogonalLoop=1;jettySize=auto;html=1;strokeWidth=2;startArrow=diamondThin;startFill=1;endArrow=none;endFill=0;strokeColor=#000000;" parent="1" source="ji5RjDv_zK_iG7Rdj1NN-74" target="g9N-B0egAPL_NO05jRid-25" edge="1">
            <mxGeometry relative="1" as="geometry">
              <mxPoint x="1599.997894736842" y="530" as="sourcePoint" />
              <mxPoint x="866.5315563839703" y="1236" as="targetPoint" />
            </mxGeometry>
          </mxCell>
        </object>
        <object id="g9N-B0egAPL_NO05jRid-34">
          <ag_attributes />
          <ag_computed_attributes />
          <mxCell style="edgeStyle=none;rounded=0;orthogonalLoop=1;jettySize=auto;html=1;strokeWidth=2;startArrow=diamondThin;startFill=1;endArrow=none;endFill=0;strokeColor=#000000;" parent="1" source="ji5RjDv_zK_iG7Rdj1NN-74" target="g9N-B0egAPL_NO05jRid-29" edge="1">
            <mxGeometry relative="1" as="geometry">
              <mxPoint x="1599.997894736842" y="530" as="sourcePoint" />
              <mxPoint x="866.5315563839703" y="1236" as="targetPoint" />
            </mxGeometry>
          </mxCell>
        </object>
        <object label="Redundancy&#10;Scalability&#10;Physical Access Control&#10;Access Control&#10;Secure Data Storage&#10;Backups" Resources="3" Knowledge="1" Location="0" id="g9N-B0egAPL_NO05jRid-9">
          <ag_attributes />
          <ag_computed_attributes />
          <mxCell style="shape=attackgraphs.node;fillColor=#DAE8FC;align=left;verticalAlign=top;" parent="1" vertex="1">
            <mxGeometry x="990" y="750" width="208" height="125" as="geometry" />
          </mxCell>
        </object>
        <object label="GNSS&#10;Jamming" Resources="2" Knowledge="2" Location="1" id="ji5RjDv_zK_iG7Rdj1NN-73">
          <ag_attributes label="NaN" Resources="4" Knowledge="5" Location="1" />
          <ag_computed_attributes fillColor="#40ff00" fontColor="#000000" value="1" />
          <ag_computed_attributes_function_reference ag_computed_attributes_function_reference="dbg60ff69g9a" />
          <ag_aggregation_function_reference ag_aggregation_function_reference="73f575i0ghij5" />
          <mxCell style="verticalAlign=top;align=center;fillColor=#fee599;gradientColor=none;labelBackgroundColor=none;rounded=0;whiteSpace=wrap;shape=attackgraphs.node;spacingRight=20;" parent="1" vertex="1">
            <mxGeometry x="1240" y="600" width="150" height="60" as="geometry" />
          </mxCell>
        </object>
        <object label="Digital Signature" Resources="2" Knowledge="2" Location="1" id="g9N-B0egAPL_NO05jRid-30">
          <ag_attributes />
          <ag_computed_attributes />
          <mxCell style="shape=attackgraphs.node;fillColor=#DAE8FC;verticalAlign=top;" parent="1" vertex="1">
            <mxGeometry x="1275" y="750" width="150" height="60" as="geometry" />
          </mxCell>
        </object>
        <object label="Obstruction of punishment" id="ji5RjDv_zK_iG7Rdj1NN-4">
          <ag_attributes _risk="L" _marking="ji5RjDv_zK_iG7Rdj1NN-71;ji5RjDv_zK_iG7Rdj1NN-32;ji5RjDv_zK_iG7Rdj1NN-51;ji5RjDv_zK_iG7Rdj1NN-98;ji5RjDv_zK_iG7Rdj1NN-101" _weight="ji5RjDv_zK_iG7Rdj1NN-71:5;ji5RjDv_zK_iG7Rdj1NN-32:4;ji5RjDv_zK_iG7Rdj1NN-51:3;ji5RjDv_zK_iG7Rdj1NN-98:5;ji5RjDv_zK_iG7Rdj1NN-101:5" />
          <ag_computed_attributes fillColor="#40ff00" fontColor="#000000" value="L" />
          <ag_aggregation_function_reference ag_aggregation_function_reference="egf49jfgj408" />
          <ag_computed_attributes_function_reference ag_computed_attributes_function_reference="6c831697g9i0a" />
          <mxCell style="verticalAlign=middle;align=center;fillColor=#FFFFFF;gradientColor=none;labelBackgroundColor=none;rounded=1;whiteSpace=wrap;shape=attackgraphs.node;" parent="1" vertex="1">
            <mxGeometry x="750" y="200" width="142" height="48" as="geometry" />
          </mxCell>
        </object>
        <object label="Integrity Protection of Environment Monitoring&#10;Plausibility Check&#10;Redundancy&#10;Access Restriction&#10;Access Control&#10;Secure Boot&#10;Code Signing&#10;System hardening" Resources="3" Knowledge="3" Location="0" id="_y_ssn7lcCSD5tmnGD-H-2">
          <ag_attributes />
          <ag_computed_attributes />
          <mxCell style="shape=attackgraphs.node;fillColor=#DAE8FC;verticalAlign=top;align=left;" parent="1" vertex="1">
            <mxGeometry x="1465.25" y="750" width="229.5" height="150" as="geometry" />
          </mxCell>
        </object>
        <object label="Moderate risk of thwarting punishment due to limited availability of data could be accepted." id="9-WTv1uy8fmimFf1s_Kx-2">
          <ag_attributes />
          <ag_computed_attributes />
          <mxCell style="text;html=1;strokeColor=none;fillColor=none;align=center;verticalAlign=middle;whiteSpace=wrap;rounded=0;" parent="1" vertex="1">
            <mxGeometry x="920" y="190" width="330" height="30" as="geometry" />
          </mxCell>
        </object>
        <object label="Firewall" Resources="1" Knowledge="1" Location="0" id="zblcPXYq2fL5P-ShEEVv-1">
          <ag_attributes />
          <ag_computed_attributes />
          <mxCell style="shape=attackgraphs.node;fillColor=#DAE8FC;verticalAlign=top;" parent="1" vertex="1">
            <mxGeometry x="720" y="750" width="150" height="60" as="geometry" />
          </mxCell>
        </object>
        <object id="zblcPXYq2fL5P-ShEEVv-2">
          <ag_attributes />
          <ag_computed_attributes />
          <mxCell style="edgeStyle=none;rounded=0;orthogonalLoop=1;jettySize=auto;html=1;strokeWidth=2;startArrow=diamondThin;startFill=1;endArrow=none;endFill=0;strokeColor=#000000;" parent="1" source="ji5RjDv_zK_iG7Rdj1NN-32" target="zblcPXYq2fL5P-ShEEVv-1" edge="1">
            <mxGeometry relative="1" as="geometry">
              <mxPoint x="1599.997894736842" y="530" as="sourcePoint" />
              <mxPoint x="866.5315563839703" y="1236" as="targetPoint" />
            </mxGeometry>
          </mxCell>
        </object>
      </root>
    </mxGraphModel>
  </diagram>
</mxfile>